# xmcd
#
# Track frame offsets:
#	150
#	14725
#	32378
#	52943
#	85321
#	104091
#	118129
#	132601
#	155919
#	176935
#	200529
#	219749
#	243461
#	278278
#	298353
#	321656
#
# Disc length: 4595 seconds
#
# Revision: 1
# Processed by: cddbd v1.5.1PL2 Copyright (c) Steve Scherf et al.
# Submitted via: audiograbber 1.81.02
#
DISCID=0511f110
DTITLE=Hughes, Bromley, Rinaldi, Bowater - 4 x 4 Vol. 3 (www.gerth.de)
DYEAR=2006
DGENRE=Chorus
TTITLE0=The Only One
TTITLE1=Wonderful So Wonderful (Beautiful One)
TTITLE2=Father Your Love
TTITLE3=Jesus Your Beauty Is Filling This Temple (Holy River)
TTITLE4=Everything I Have Comes From You (Acknowledge Your)
TTITLE5=Jesus You Alone
TTITLE6=Early In The Morning
TTITLE7=Your Word
TTITLE8=This Is My Pilgrimage (Restless Pilgrim)
TTITLE9=Light Of The World (Here I Am To Worship)
TTITLE10=Magnificent
TTITLE11=I Will Follow You To The Cross (Lay Myself Down)
TTITLE12=When All Around Is Fading (Whole World In His Hands)
TTITLE13=Show Me Your Ways
TTITLE14=Glorious King
TTITLE15=Only You
EXTD=
EXTT0=
EXTT1=
EXTT2=
EXTT3=
EXTT4=
EXTT5=
EXTT6=
EXTT7=
EXTT8=
EXTT9=
EXTT10=
EXTT11=
EXTT12=
EXTT13=
EXTT14=
EXTT15=
PLAYORDER=
